<?xml version="1.0" encoding="iso-8859-1"?>
<!-- Uploaded to: SVG Repo, www.svgrepo.com, Generator: SVG Repo Mixer Tools -->
<svg height="800px" width="800px" version="1.1" id="Layer_1" xmlns="http://www.w3.org/2000/svg" xmlns:xlink="http://www.w3.org/1999/xlink" 
	 viewBox="0 0 392.663 392.663" xml:space="preserve">
<path style="fill:#FFFFFF;" d="M267.184,250.44c0-28.574,23.273-51.846,51.846-51.846h27.281v-67.297H65.681
	c-16.873,0-32.194-6.335-43.83-16.873v212.493c0,24.178,19.653,43.83,43.83,43.83h280.566v-68.525h-27.281
	C290.457,302.287,267.184,279.014,267.184,250.44z"/>
<g>
	<path style="fill:#FFC10D;" d="M21.85,65.681c0,24.178,19.653,43.83,43.83,43.83h236.994V76.606H68.784
		c-6.012,0-10.925-4.848-10.925-10.925c0-6.012,4.848-10.925,10.925-10.925h233.891V21.851H65.681
		C41.568,21.851,21.85,41.568,21.85,65.681z"/>
	<path style="fill:#FFC10D;" d="M319.03,220.444c-16.549,0-29.996,13.446-29.996,29.996s13.446,29.996,29.996,29.996h51.782V220.38
		H319.03L319.03,220.444L319.03,220.444z"/>
</g>
<path style="fill:#56ACE0;" d="M302.675,153.147H66.069c-12.024,0-21.786,9.762-21.786,21.786v12.606h55.079
	c6.012,0,10.925,4.848,10.925,10.925s-4.848,10.925-10.925,10.925H44.283v29.608h34.909c6.012,0,10.925,4.848,10.925,10.925
	s-4.848,10.925-10.925,10.925H44.283v65.745c0,12.024,9.762,21.786,21.786,21.786h236.606c12.024,0,21.786-9.762,21.786-21.786
	v-24.242h-5.43c-28.574,0-51.846-23.273-51.846-51.846s23.273-51.846,51.846-51.846h5.43v-23.725
	C324.461,162.844,314.699,153.147,302.675,153.147z"/>
<g>
	<path style="fill:#194F82;" d="M381.737,198.659h-13.576v-78.287c0-6.012-4.848-10.925-10.925-10.925h-32.711V10.925
		C324.525,4.913,319.677,0,313.6,0H65.681C29.479,0.065,0.065,29.479,0.065,65.681l0,0l0,0v261.366
		c0,36.137,29.414,65.616,65.616,65.616h291.491c6.012,0,10.925-4.848,10.925-10.925v-79.45h13.576
		c6.012,0,10.925-4.848,10.925-10.925v-81.842C392.598,203.507,387.749,198.659,381.737,198.659z M65.681,21.851h236.994v32.905
		H68.784c-6.012,0-10.925,4.848-10.925,10.925c0,6.012,4.848,10.925,10.925,10.925h233.891v32.905H65.681
		c-24.178,0-43.83-19.653-43.83-43.83C21.85,41.568,41.568,21.851,65.681,21.851z M346.311,370.812H65.681
		c-24.178,0-43.83-19.653-43.83-43.83V114.489c11.572,10.408,26.958,16.873,43.83,16.873h280.566v67.297h-27.281
		c-28.574,0-51.846,23.273-51.846,51.846s23.273,51.846,51.846,51.846h27.281v68.461H346.311z M370.812,280.501H319.03
		c-16.549,0-29.996-13.446-29.996-29.996s13.446-29.996,29.996-29.996h51.782V280.501z"/>
	<path style="fill:#194F82;" d="M302.675,250.44c0,6.012,4.848,10.925,10.925,10.925h10.02c6.012,0,10.925-4.848,10.925-10.925
		s-4.848-10.925-10.925-10.925H313.6C307.523,239.515,302.675,244.493,302.675,250.44z"/>
</g>
</svg>